PathFileType	4	(x/y/z)	S02_M20_T11
DataRate	CameraRate	NumFrames	NumMarkers	Units	OrigDataRate	OrigDataStartFrame	OrigNumFrames
240	240	10	51	mm	240	59	466
Frame#	Time	Sternum			R.Acromium			L.Acromium			Top.Head			R.ASIS			L.ASIS			R.PSIS			L.PSIS			R.Great.Tro			L.Great.Tro			R.Iliac.Crest			L.Iliac.Crest			V.Sacral			R.Thigh.Upper.Post			R.Thigh.Lower.Ant			R.Thigh.Lower.Post			R.Thigh.Upper.Ant			R.Knee.Lat			R.Knee.Med			R.Shank.Upper.Post			R.Shank.Lower.Ant			R.Shank.Lower.Post			R.Shank.Upper.Ant			R.Ankle.Lat			R.Ankle.Med			R.Heel.Upper			R.Heel.Med			R.Heel.Lat			R.Toe.Lat			R.Toe.Med			R.Toe.Tip			L.Thigh.Upper.Post			L.Thigh.Lower.Ant			L.Thigh.Lower.Post			L.Thigh.Upper.Ant			L.Knee.Lat			L.Knee.Med			L.Shank.Upper.Post			L.Shank.Lower.Ant			L.Shank.Lower.Post			L.Shank.Upper.Ant			L.Ankle.Lat			L.Ankle.Med			L.Heel.Upper			L.Heel.Med			L.Heel.Lat			L.Toe.Lat			L.Toe.Med			L.Toe.Tip			Cervical.Spine			Back			
		X1	Y1	Z1	X2	Y2	Z2	X3	Y3	Z3	X4	Y4	Z4	X5	Y5	Z5	X6	Y6	Z6	X7	Y7	Z7	X8	Y8	Z8	X9	Y9	Z9	X10	Y10	Z10	X11	Y11	Z11	X12	Y12	Z12	X13	Y13	Z13	X14	Y14	Z14	X15	Y15	Z15	X16	Y16	Z16	X17	Y17	Z17	X18	Y18	Z18	X19	Y19	Z19	X20	Y20	Z20	X21	Y21	Z21	X22	Y22	Z22	X23	Y23	Z23	X24	Y24	Z24	X25	Y25	Z25	X26	Y26	Z26	X27	Y27	Z27	X28	Y28	Z28	X29	Y29	Z29	X30	Y30	Z30	X31	Y31	Z31	X32	Y32	Z32	X33	Y33	Z33	X34	Y34	Z34	X35	Y35	Z35	X36	Y36	Z36	X37	Y37	Z37	X38	Y38	Z38	X39	Y39	Z39	X40	Y40	Z40	X41	Y41	Z41	X42	Y42	Z42	X43	Y43	Z43	X44	Y44	Z44	X45	Y45	Z45	X46	Y46	Z46	X47	Y47	Z47	X48	Y48	Z48	X49	Y49	Z49	X50	Y50	Z50	X51	Y51	Z51	

59	0.24167	-1197.6	1097.8	265.9	-1304.6	1336.8	404.74	-1313.9	1334.6	112	-1261	1618.7	250.24	-1246.6	915.76	390.01	-1216.2	910.75	177.01	-1447.3	964.87	314.11	-1451	975.4	240.26	-1341.8	797.98	475.35	-1326.5	831.11	82.135	-1358.7	973.35	440.49	-1336.9	968.16	101.97	-1477.7	925.34	266.72	-1322.8	602.31	476.02	-1261.8	519.39	462.51	-1335	511.84	464.22	-1253.8	608.64	472.5	-1326.6	436.45	463.88	-1301.5	408.96	320.7	-1515.5	366.74	425.09	-1541.6	259.84	418.7	-1574.8	319.29	414.57	-1488.8	303.01	437.98	-1638	247.67	402.62	-1606.3	239.97	322.3	-1667.4	289.52	340.43	-1680.5	263.82	308.72	-1705.6	276.84	370.8	-1646.4	129.66	429.91	-1613.1	95.737	328.46	-1578	68.604	390.21	-1310.7	597.03	113.77	-1217.6	537.13	125.09	-1292.7	511.36	140.07	-1245.5	625.48	99.942	-1221.1	453.82	140.81	-1226.3	456.58	277.12	-1301.3	286.1	143.4	-1238.7	196.44	166.59	-1307	215.21	159.43	-1240.7	269.91	147.51	-1289.7	98.336	180.44	-1285.8	95.946	262.52	-1354.9	69.504	216.29	-1346.3	44.787	249.72	-1348.4	41.405	188.38	-1182.1	34.625	163.36	-1164	43.702	274.08	-1101.5	59.115	227.55	-1392.5	1397.9	260.87	-1468.1	1146.6	277.19
60	0.24583	-1192.6	1098.8	265.98	-1300.6	1338.3	404.63	-1308.4	1335.5	111.66	-1256	1619.8	250.1	-1241.7	917.1	389.71	-1211.3	911.3	176.71	-1442.3	966.2	313.36	-1446	976.67	239.5	-1337.1	799.71	475.01	-1322.5	831.8	81.79	-1354.5	974.85	439.97	-1331.6	969.03	101.41	-1472.8	926.71	265.98	-1314.8	603.7	476.18	-1253.2	521.45	462.83	-1326.2	513.16	464.45	-1246.2	610.77	472.68	-1316.8	437.91	464.12	-1291.6	410.72	320.84	-1505.2	366.73	425	-1530	259.49	418.38	-1564.1	318.83	414.4	-1477.5	303.06	437.69	-1626.8	246.87	402.22	-1595.1	239.3	322.05	-1657	287.9	339.8	-1669.6	261.74	308.17	-1694.8	274.99	370.18	-1633.1	128.98	429.99	-1599.3	95.116	328.71	-1563.7	68.909	390.65	-1308.4	597.77	113.74	-1216	537.04	124.82	-1291.1	511.94	139.98	-1243	625.66	99.657	-1220	453.85	140.55	-1224.6	456.66	276.91	-1300.7	286.43	143.31	-1238.3	196.56	166.42	-1306.3	215.66	159.1	-1240.2	270.02	147.33	-1289.6	98.468	180.42	-1285.7	96.118	262.44	-1354.8	69.68	216.28	-1346.2	44.97	249.69	-1348.4	41.581	188.36	-1182	34.604	163.36	-1164	43.684	274.05	-1101.4	59.019	227.54	-1387.5	1399	260.23	-1463.2	1147.7	276.1
61	0.25	-1187.7	1099.9	266.08	-1296.5	1339.7	404.52	-1302.9	1336.4	111.33	-1251	1620.9	249.95	-1236.8	918.45	389.39	-1206.5	911.87	176.39	-1437.3	967.54	312.64	-1441	977.94	238.77	-1332.3	801.46	474.69	-1318.5	832.49	81.472	-1350.3	976.34	439.45	-1326.3	969.88	100.87	-1467.9	928.08	265.3	-1306.9	605.1	476.34	-1244.6	523.54	463.1	-1317.4	514.51	464.65	-1238.5	612.92	472.83	-1307	439.39	464.32	-1281.7	412.52	320.96	-1494.9	366.59	424.93	-1518.3	259.01	418.05	-1553.3	318.21	414.25	-1466.2	303.01	437.38	-1615.6	245.87	401.85	-1583.8	238.47	321.81	-1646.6	286.06	339.21	-1658.5	259.41	307.67	-1683.8	272.85	369.61	-1619.5	128.11	430.06	-1585.2	94.376	328.95	-1549.2	69.117	391.06	-1306.2	598.53	113.7	-1214.3	536.99	124.55	-1289.5	512.55	139.89	-1240.5	625.86	99.383	-1218.8	453.89	140.31	-1222.9	456.75	276.7	-1300.1	286.76	143.23	-1238	196.7	166.25	-1305.7	216.12	158.79	-1239.7	270.16	147.16	-1289.4	98.61	180.39	-1285.6	96.302	262.35	-1354.7	69.863	216.25	-1346.1	45.16	249.67	-1348.3	41.762	188.34	-1182	34.582	163.35	-1163.9	43.67	274.03	-1101.3	58.923	227.52	-1382.6	1400	259.6	-1458.3	1148.8	275.01
62	0.25417	-1182.8	1101	266.18	-1292.3	1341.1	404.41	-1297.5	1337.4	111.01	-1246.1	1621.9	249.82	-1231.9	919.8	389.04	-1201.6	912.47	176.05	-1432.4	968.88	311.97	-1436.1	979.2	238.09	-1327.6	803.21	474.39	-1314.7	833.2	81.18	-1345.9	977.82	438.91	-1321.1	970.71	100.34	-1463	929.46	264.66	-1298.9	606.52	476.49	-1236	525.66	463.34	-1308.6	515.88	464.83	-1230.9	615.08	472.94	-1297.1	440.87	464.48	-1271.8	414.37	321.04	-1484.6	366.33	424.88	-1506.4	258.39	417.71	-1542.5	317.44	414.12	-1454.7	302.88	437.06	-1604.2	244.68	401.51	-1572.4	237.48	321.59	-1636.1	283.99	338.68	-1647.4	256.87	307.22	-1672.6	270.4	369.08	-1605.6	127.04	430.13	-1571	93.526	329.18	-1534.4	69.236	391.45	-1303.9	599.31	113.67	-1212.7	536.96	124.26	-1288	513.17	139.8	-1238.1	626.06	99.119	-1217.7	453.95	140.08	-1221.3	456.86	276.49	-1299.6	287.11	143.15	-1237.7	196.86	166.07	-1305.2	216.57	158.5	-1239.3	270.31	146.98	-1289.3	98.761	180.36	-1285.4	96.499	262.26	-1354.6	70.055	216.23	-1346.1	45.357	249.64	-1348.3	41.946	188.32	-1182	34.56	163.35	-1163.9	43.659	273.99	-1101.2	58.828	227.51	-1377.7	1401.1	258.99	-1453.5	1149.8	273.93
63	0.25833	-1178	1102.1	266.3	-1288.1	1342.5	404.31	-1292.2	1338.3	110.71	-1241.2	1623	249.68	-1226.9	921.16	388.65	-1196.8	913.1	175.68	-1427.4	970.2	311.33	-1431.2	980.46	237.44	-1322.7	804.95	474.1	-1310.9	833.9	80.915	-1341.5	979.28	438.37	-1316	971.52	99.821	-1458.2	930.81	264.09	-1291.1	607.94	476.63	-1227.5	527.79	463.55	-1299.8	517.27	464.99	-1223.2	617.25	473.02	-1287.3	442.37	464.6	-1262	416.25	321.1	-1474.3	365.96	424.85	-1494.5	257.66	417.38	-1531.6	316.52	414.01	-1443.3	302.67	436.75	-1592.7	243.3	401.2	-1560.9	236.33	321.37	-1625.6	281.69	338.21	-1636.3	254.1	306.83	-1661.3	267.67	368.59	-1591.6	125.8	430.21	-1556.5	92.573	329.39	-1519.4	69.273	391.81	-1301.7	600.09	113.63	-1211	536.94	123.97	-1286.4	513.81	139.7	-1235.7	626.27	98.864	-1216.6	454.02	139.86	-1219.8	456.98	276.3	-1299.1	287.46	143.06	-1237.4	197.03	165.89	-1304.6	217.01	158.24	-1238.8	270.5	146.8	-1289.1	98.922	180.33	-1285.3	96.71	262.18	-1354.5	70.254	216.2	-1346	45.564	249.62	-1348.2	42.135	188.29	-1181.9	34.538	163.35	-1163.8	43.651	273.96	-1101.2	58.733	227.49	-1372.8	1402.1	258.39	-1448.6	1150.8	272.86
64	0.2625	-1173.2	1103.2	266.42	-1283.8	1343.8	404.2	-1286.8	1339.3	110.43	-1236.2	1624	249.55	-1222	922.53	388.23	-1192.1	913.76	175.28	-1422.4	971.52	310.75	-1426.3	981.7	236.84	-1317.8	806.67	473.82	-1307.2	834.61	80.675	-1337	980.72	437.83	-1311	972.32	99.321	-1453.3	932.15	263.57	-1283.2	609.37	476.76	-1219	529.94	463.71	-1291	518.67	465.13	-1215.7	619.43	473.06	-1277.5	443.88	464.68	-1252.1	418.17	321.13	-1463.9	365.47	424.82	-1482.5	256.83	417.06	-1520.7	315.46	413.92	-1431.8	302.4	436.43	-1581.1	241.74	400.92	-1549.4	235.03	321.17	-1614.9	279.18	337.78	-1625	251.12	306.48	-1649.8	264.65	368.15	-1577.3	124.39	430.29	-1541.9	91.525	329.59	-1504.2	69.237	392.16	-1299.5	600.88	113.59	-1209.4	536.95	123.68	-1284.9	514.47	139.62	-1233.3	626.49	98.619	-1215.6	454.11	139.66	-1218.3	457.1	276.11	-1298.5	287.84	142.98	-1237.1	197.23	165.7	-1304	217.45	158	-1238.3	270.7	146.63	-1289	99.095	180.29	-1285.1	96.934	262.09	-1354.4	70.462	216.17	-1345.9	45.779	249.59	-1348.1	42.33	188.26	-1181.9	34.517	163.34	-1163.7	43.646	273.92	-1101.1	58.637	227.47	-1367.9	1403.1	257.8	-1443.8	1151.9	271.81
65	0.26667	-1168.4	1104.3	266.54	-1279.4	1345.1	404.09	-1281.5	1340.2	110.16	-1231.3	1625	249.42	-1217.1	923.89	387.77	-1187.4	914.46	174.84	-1417.4	972.82	310.21	-1421.4	982.92	236.29	-1312.9	808.36	473.54	-1303.5	835.32	80.459	-1332.3	982.15	437.29	-1306	973.1	98.836	-1448.5	933.46	263.12	-1275.5	610.81	476.88	-1210.5	532.11	463.84	-1282.3	520.1	465.24	-1208.1	621.61	473.09	-1267.7	445.4	464.71	-1242.4	420.13	321.13	-1453.5	364.87	424.81	-1470.4	255.9	416.74	-1509.7	314.26	413.84	-1420.4	302.07	436.12	-1569.4	239.99	400.68	-1537.7	233.58	320.98	-1604.2	276.46	337.41	-1613.6	247.93	306.19	-1638.2	261.34	367.76	-1562.8	122.82	430.38	-1527	90.389	329.79	-1488.7	69.136	392.49	-1297.3	601.68	113.56	-1207.8	536.96	123.39	-1283.4	515.15	139.53	-1231	626.72	98.384	-1214.5	454.2	139.46	-1216.8	457.24	275.94	-1298.1	288.22	142.91	-1236.9	197.43	165.51	-1303.5	217.87	157.79	-1237.9	270.92	146.46	-1288.9	99.28	180.25	-1285	97.17	262.01	-1354.3	70.679	216.13	-1345.9	46.004	249.56	-1348.1	42.532	188.24	-1181.9	34.496	163.34	-1163.7	43.646	273.88	-1101	58.542	227.44	-1363	1404.1	257.23	-1439	1152.9	270.77
66	0.27083	-1163.7	1105.4	266.67	-1275	1346.4	403.97	-1276.3	1341.2	109.9	-1226.5	1626	249.3	-1212.2	925.26	387.28	-1182.7	915.19	174.38	-1412.4	974.09	309.72	-1416.6	984.12	235.79	-1307.9	810.01	473.28	-1299.8	836.03	80.266	-1327.7	983.55	436.76	-1301.1	973.88	98.368	-1443.6	934.74	262.72	-1267.7	612.25	476.99	-1202.1	534.28	463.93	-1273.6	521.54	465.33	-1200.5	623.8	473.08	-1258	446.93	464.7	-1232.6	422.11	321.11	-1443.2	364.16	424.8	-1458.3	254.88	416.45	-1498.7	312.92	413.79	-1408.9	301.69	435.83	-1557.7	238.07	400.47	-1525.9	231.99	320.82	-1593.3	273.53	337.09	-1602	244.55	305.94	-1626.3	257.78	367.42	-1548.1	121.11	430.47	-1512	89.174	329.97	-1473.1	68.979	392.8	-1295.1	602.48	113.52	-1206.2	536.99	123.11	-1281.9	515.84	139.45	-1228.6	626.94	98.159	-1213.5	454.3	139.28	-1215.5	457.39	275.78	-1297.6	288.61	142.83	-1236.6	197.66	165.33	-1303	218.29	157.6	-1237.5	271.15	146.29	-1288.7	99.477	180.2	-1284.9	97.42	261.92	-1354.2	70.905	216.1	-1345.8	46.24	249.52	-1348	42.742	188.21	-1181.8	34.475	163.33	-1163.6	43.649	273.83	-1100.9	58.446	227.42	-1358	1405	256.67	-1434.3	1153.9	269.75
67	0.275	-1159	1106.5	266.8	-1270.5	1347.5	403.85	-1271	1342.1	109.65	-1221.6	1626.9	249.19	-1207.3	926.61	386.75	-1178	915.95	173.87	-1407.4	975.33	309.28	-1411.7	985.28	235.33	-1302.9	811.61	473.02	-1296.2	836.73	80.092	-1322.9	984.93	436.23	-1296.4	974.64	97.916	-1438.8	935.97	262.4	-1260.1	613.7	477.09	-1193.7	536.46	463.99	-1265	523	465.39	-1193	625.99	473.06	-1248.3	448.47	464.65	-1223	424.1	321.06	-1432.8	363.34	424.8	-1446.1	253.79	416.17	-1487.6	311.46	413.74	-1397.4	301.26	435.54	-1545.8	235.97	400.29	-1513.9	230.27	320.66	-1582.3	270.4	336.82	-1590.4	240.97	305.75	-1614.4	253.96	367.13	-1533.3	119.27	430.57	-1496.8	87.886	330.16	-1457.4	68.772	393.1	-1292.9	603.3	113.48	-1204.6	537.03	122.84	-1280.5	516.54	139.38	-1226.2	627.17	97.944	-1212.5	454.41	139.1	-1214.2	457.55	275.63	-1297.1	289.01	142.76	-1236.4	197.89	165.14	-1302.5	218.7	157.44	-1237.1	271.39	146.13	-1288.6	99.686	180.15	-1284.7	97.68	261.85	-1354	71.143	216.06	-1345.7	46.487	249.49	-1347.9	42.96	188.18	-1181.8	34.455	163.33	-1163.6	43.655	273.79	-1100.8	58.349	227.39	-1353.1	1405.9	256.13	-1429.5	1154.8	268.75
68	0.27917	-1154.3	1107.5	266.92	-1266	1348.7	403.72	-1265.8	1343.1	109.42	-1216.8	1627.8	249.09	-1202.4	927.96	386.18	-1173.4	916.74	173.34	-1402.4	976.54	308.89	-1406.9	986.4	234.94	-1297.8	813.16	472.77	-1292.5	837.43	79.935	-1318.1	986.28	435.71	-1291.7	975.38	97.481	-1434	937.14	262.13	-1252.5	615.15	477.19	-1185.4	538.65	464	-1256.4	524.47	465.43	-1185.6	628.16	473.01	-1238.7	450.03	464.54	-1213.4	426.12	320.99	-1422.4	362.43	424.8	-1433.9	252.63	415.91	-1476.5	309.87	413.71	-1386	300.79	435.28	-1533.7	233.71	400.14	-1501.8	228.41	320.53	-1571.2	267.08	336.6	-1578.6	237.21	305.6	-1602.3	249.92	366.89	-1518.3	117.31	430.66	-1481.5	86.535	330.34	-1441.4	68.524	393.39	-1290.7	604.11	113.45	-1203	537.07	122.57	-1279	517.26	139.31	-1223.9	627.39	97.74	-1211.5	454.53	138.93	-1212.9	457.72	275.5	-1296.6	289.42	142.69	-1236.1	198.14	164.97	-1302.1	219.11	157.3	-1236.7	271.64	145.97	-1288.5	99.906	180.1	-1284.6	97.953	261.77	-1353.9	71.392	216.02	-1345.7	46.747	249.46	-1347.8	43.188	188.15	-1181.7	34.436	163.32	-1163.5	43.666	273.74	-1100.7	58.251	227.37	-1348.2	1406.8	255.6	-1424.8	1155.8	267.77
